<?xml version="1.0" standalone="no"?>
<!DOCTYPE svg PUBLIC "-//W3C//DTD SVG 20010904//EN"
 "http://www.w3.org/TR/2001/REC-SVG-20010904/DTD/svg10.dtd">
<svg version="1.0" xmlns="http://www.w3.org/2000/svg"
 width="45.000000pt" height="45.000000pt" viewBox="0 0 45.000000 45.000000"
 preserveAspectRatio="xMidYMid meet">
<metadata>
Created by potrace 1.15, written by Peter Selinger 2001-2017
</metadata>
<g transform="translate(0.000000,45.000000) scale(0.100000,-0.100000)"
fill="#000000" stroke="none">
<path d="M125 431 c-81 -38 -125 -111 -125 -208 1 -133 91 -223 225 -223 135
0 225 90 225 225 0 99 -48 174 -132 209 -51 22 -143 20 -193 -3z m115 -116 l0
-75 75 0 c60 0 75 -3 75 -15 0 -12 -15 -15 -75 -15 l-75 0 0 -75 c0 -60 -3
-75 -15 -75 -12 0 -15 15 -15 75 l0 75 -75 0 c-60 0 -75 3 -75 15 0 12 15 15
75 15 l75 0 0 75 c0 60 3 75 15 75 12 0 15 -15 15 -75z"/>
</g>
</svg>
