<?xml version="1.0" standalone="no"?>
<!DOCTYPE svg PUBLIC "-//W3C//DTD SVG 20010904//EN"
 "http://www.w3.org/TR/2001/REC-SVG-20010904/DTD/svg10.dtd">
<svg version="1.0" xmlns="http://www.w3.org/2000/svg"
 width="54.000000pt" height="57.000000pt" viewBox="0 0 54.000000 57.000000"
 preserveAspectRatio="xMidYMid meet">
<metadata>
Created by potrace 1.15, written by Peter Selinger 2001-2017
</metadata>
<g transform="translate(0.000000,57.000000) scale(0.100000,-0.100000)"
fill="#000000" stroke="none">
<path d="M115 551 c-22 -10 -50 -29 -62 -42 -73 -80 -69 -235 8 -306 57 -52
161 -68 239 -37 l41 17 85 -92 c47 -50 92 -91 100 -91 31 0 10 36 -69 121
l-84 90 24 46 c42 83 24 202 -38 260 -58 53 -169 69 -244 34z m192 -47 c54
-41 68 -70 68 -144 0 -74 -14 -103 -69 -144 -39 -30 -153 -30 -192 0 -61 45
-85 109 -70 188 8 43 49 94 91 112 43 20 138 13 172 -12z"/>
</g>
</svg>
