<?xml version="1.0" standalone="no"?>
<!DOCTYPE svg PUBLIC "-//W3C//DTD SVG 20010904//EN"
 "http://www.w3.org/TR/2001/REC-SVG-20010904/DTD/svg10.dtd">
<svg version="1.0" xmlns="http://www.w3.org/2000/svg"
 width="57.000000pt" height="60.000000pt" viewBox="0 0 57.000000 60.000000"
 preserveAspectRatio="xMidYMid meet">
<metadata>
Created by potrace 1.15, written by Peter Selinger 2001-2017
</metadata>
<g transform="translate(0.000000,60.000000) scale(0.100000,-0.100000)"
fill="#000000" stroke="none">
<path d="M0 405 l0 -195 135 0 135 0 0 195 0 195 -135 0 -135 0 0 -195z"/>
<path d="M300 510 l0 -90 135 0 135 0 0 90 0 90 -135 0 -135 0 0 -90z"/>
<path d="M300 195 l0 -195 135 0 135 0 0 195 0 195 -135 0 -135 0 0 -195z"/>
<path d="M0 90 l0 -90 135 0 135 0 0 90 0 90 -135 0 -135 0 0 -90z"/>
</g>
</svg>
