<?xml version="1.0" standalone="no"?>
<!DOCTYPE svg PUBLIC "-//W3C//DTD SVG 20010904//EN"
 "http://www.w3.org/TR/2001/REC-SVG-20010904/DTD/svg10.dtd">
<svg version="1.0" xmlns="http://www.w3.org/2000/svg"
 width="222.000000pt" height="264.000000pt" viewBox="0 0 222.000000 264.000000"
 preserveAspectRatio="xMidYMid meet">
<metadata>
Created by potrace 1.15, written by Peter Selinger 2001-2017
</metadata>
<g transform="translate(0.000000,264.000000) scale(0.100000,-0.100000)"
fill="#000000" stroke="none">
<path d="M635 2588 c-24 -19 -27 -26 -22 -62 6 -37 27 -151 41 -216 52 -240
57 -254 85 -258 75 -11 96 29 71 138 -15 69 -36 169 -46 230 -3 14 -10 43 -16
65 -10 40 -16 64 -17 77 -2 12 -44 48 -57 48 -6 0 -24 -10 -39 -22z"/>
<path d="M1084 2573 c-13 -14 -29 -44 -34 -67 -6 -23 -15 -50 -20 -61 -9 -19
-28 -89 -31 -110 0 -5 -4 -14 -9 -20 -4 -5 -11 -26 -15 -45 -4 -19 -11 -39
-15 -45 -10 -14 -30 -99 -30 -127 0 -35 15 -52 50 -54 26 -2 35 4 55 34 13 21
26 53 30 72 4 19 10 40 14 45 3 6 6 12 7 15 2 15 30 108 60 200 37 115 40 138
22 163 -22 29 -57 29 -84 0z"/>
<path d="M1413 2372 c-15 -16 -62 -65 -103 -111 -41 -45 -93 -101 -115 -124
-89 -93 -104 -115 -99 -144 5 -32 29 -53 57 -53 21 0 147 126 342 343 67 75
-12 160 -82 89z"/>
<path d="M205 2182 c-57 -20 -102 -56 -128 -103 -16 -27 -30 -57 -32 -67 -17
-88 -3 -153 43 -201 21 -21 95 -71 167 -111 181 -102 171 -94 147 -116 -41
-40 -74 -113 -76 -169 -2 -53 -3 -55 -51 -87 -96 -64 -141 -202 -96 -291 l19
-37 -23 -18 c-34 -27 -83 -115 -90 -162 -9 -59 17 -138 57 -176 37 -34 777
-464 800 -464 8 0 19 -5 24 -10 14 -14 131 -20 187 -9 26 4 70 19 99 32 l52
24 178 -103 c146 -84 183 -102 201 -95 31 13 174 144 222 205 17 21 41 50 54
65 33 34 161 258 161 280 0 9 5 22 11 28 6 6 12 17 13 24 1 8 11 41 21 74 22
70 22 71 30 109 3 16 8 33 10 37 3 4 7 32 10 62 4 39 2 59 -8 68 -8 8 -99 63
-204 123 l-190 109 -11 87 c-7 49 -10 94 -8 102 3 7 7 29 9 48 6 45 16 73 59
170 25 55 40 85 89 178 29 55 39 85 39 120 0 66 -17 118 -47 148 -27 27 -117
74 -141 74 -39 0 -121 -34 -153 -63 -31 -28 -119 -163 -119 -182 0 -3 -18 -44
-40 -90 -22 -46 -40 -90 -40 -97 0 -8 -5 -19 -10 -24 -6 -6 -12 -19 -14 -30
-2 -10 -10 -31 -18 -45 l-14 -27 -528 305 c-499 288 -531 305 -585 309 -31 2
-65 0 -76 -4z m191 -182 c49 -29 90 -53 92 -55 2 -1 -7 -18 -20 -37 -18 -25
-64 -111 -74 -136 -3 -8 -201 114 -214 132 -22 31 -23 72 -4 105 39 66 96 64
220 -9z m1457 -43 c26 -33 15 -82 -43 -180 -27 -47 -50 -90 -50 -97 0 -7 -6
-24 -14 -38 -13 -24 -39 -89 -42 -102 0 -3 -3 -12 -7 -20 -32 -78 -36 -173
-13 -307 28 -159 8 -287 -71 -450 -55 -115 -117 -199 -151 -208 -55 -14 -102
30 -102 96 0 49 -16 69 -55 69 -109 0 -85 -208 30 -268 l35 -17 -25 -27 c-96
-103 -237 -147 -347 -108 -68 24 -238 122 -238 138 0 6 4 12 9 12 5 0 23 25
41 56 42 75 50 144 22 206 l-20 46 24 12 c13 7 26 21 30 32 3 10 9 18 14 18
15 0 42 85 45 140 1 42 6 56 18 58 10 2 17 8 17 14 0 6 3 8 6 5 4 -4 25 11 46
33 46 46 78 122 78 185 0 89 -36 134 -171 211 -84 47 -96 58 -85 70 8 7 31 44
51 81 21 37 39 70 41 72 2 2 378 -210 431 -244 1 0 -2 -17 -7 -36 -5 -19 -11
-45 -14 -59 -3 -14 -9 -41 -14 -60 -4 -19 -6 -42 -5 -51 5 -23 47 -43 76 -35
29 7 37 24 77 176 28 107 40 145 60 195 38 95 86 208 105 245 12 25 31 63 41
84 21 44 49 74 79 86 28 10 77 -6 98 -33z m-1032 -227 c-21 -17 -71 -102 -80
-136 -6 -22 -9 -21 -124 46 -65 37 -121 70 -123 73 -2 2 16 37 40 77 24 41 43
81 41 91 -2 12 35 -5 131 -60 124 -70 132 -77 115 -91z m-64 -319 c204 -118
215 -130 204 -210 0 -5 -15 -24 -33 -41 -27 -28 -36 -31 -69 -26 -46 7 -344
177 -381 217 -42 45 -36 108 15 150 38 30 75 18 264 -90z m-182 -276 c228
-131 225 -129 225 -171 0 -61 -41 -113 -89 -114 -32 0 -397 209 -411 235 -22
43 -20 71 8 113 9 13 82 43 92 37 3 -1 82 -47 175 -100z m1410 -180 c55 -32
101 -59 103 -60 9 -8 -47 -202 -84 -290 -29 -70 -106 -198 -153 -255 -57 -70
-173 -190 -184 -190 -5 0 -63 32 -131 71 l-123 72 51 53 c111 116 149 164 214
275 41 69 108 204 102 204 -1 0 5 25 13 55 14 50 26 114 27 148 0 10 8 9 33
-6 17 -10 77 -45 132 -77z m-1469 -156 c96 -56 181 -111 189 -122 26 -37 19
-94 -14 -128 -49 -48 -73 -42 -270 73 -204 117 -227 139 -210 203 14 50 44 75
90 75 33 0 72 -19 215 -101z"/>
</g>
</svg>
